<svg width="22" height="19" viewBox="0 0 22 19" fill="none" xmlns="http://www.w3.org/2000/svg">
<path d="M7.35003 1.00003C8.53003 0.830028 9.78003 2.12003 10.14 3.90003C10.5 5.67003 9.85003 7.25003 8.67003 7.43003C7.50003 7.61003 6.24003 6.32003 5.87003 4.54003C5.50003 2.77003 6.17003 1.19003 7.35003 1.00003ZM14.5 1.00003C15.69 1.19003 16.35 2.77003 16 4.54003C15.62 6.32003 14.37 7.61003 13.19 7.43003C12 7.25003 11.35 5.67003 11.72 3.90003C12.08 2.12003 13.33 0.830028 14.5 1.00003ZM2.00003 5.60003C3.14003 5.11003 4.69003 6.00003 5.50003 7.55003C6.26003 9.13003 6.00003 10.79 4.87003 11.28C3.74003 11.77 2.20003 10.89 1.41003 9.32003C0.620029 7.75003 0.900028 6.08003 2.00003 5.60003ZM20 5.60003C21.1 6.08003 21.38 7.75003 20.59 9.32003C19.8 10.89 18.26 11.77 17.13 11.28C16 10.79 15.74 9.13003 16.5 7.55003C17.31 6.00003 18.86 5.11003 20 5.60003ZM18.33 16.38C18.37 17.32 17.65 18.36 16.79 18.75C15 19.57 12.88 17.87 10.89 17.87C8.90003 17.87 6.76003 19.64 5.00003 18.75C4.00003 18.26 3.31003 16.96 3.44003 15.88C3.62003 14.39 5.41003 13.59 6.47003 12.5C7.88003 11.09 8.88003 8.44003 10.89 8.44003C12.89 8.44003 13.95 11.05 15.3 12.5C16.41 13.72 18.26 14.75 18.33 16.38Z" fill="black"/>
</svg>
